HIERARCHY
ROOT Root
{
  OFFSET 0.0 0.0 0.0
  CHANNELS 6 Xposition Yposition Zposition Zrotation Yrotation Xrotation
  JOINT Hips
  {
    OFFSET 0.0 100.0 0.0
    CHANNELS 6 Xposition Yposition Zposition Zrotation Yrotation Xrotation
    JOINT Spine1
    {
      OFFSET 5.003913 -0.037094 -0.013727
      CHANNELS 3 Zrotation Yrotation Xrotation
      JOINT Spine2
      {
        OFFSET 7.125363 -1e-06 0.0
        CHANNELS 3 Zrotation Yrotation Xrotation
        JOINT Chest
        {
          OFFSET 7.594027 1e-06 0.0
          CHANNELS 3 Zrotation Yrotation Xrotation
          JOINT Neck1
          {
            OFFSET 26.313086 -0.460272 -0.181672
            CHANNELS 3 Zrotation Yrotation Xrotation
            JOINT Neck2
            {
              OFFSET 8.045911 0.0 0.0
              CHANNELS 3 Zrotation Yrotation Xrotation
              JOINT Head
              {
                OFFSET 6.432774 0.0 0.0
                CHANNELS 3 Zrotation Yrotation Xrotation
                JOINT HeadEnd
                {
                  OFFSET 16.169773 0.06451 0.00362
                  CHANNELS 3 Zrotation Yrotation Xrotation
                }
                JOINT Jaw
                {
                  OFFSET 0.108741 3.12938 0.002639
                  CHANNELS 3 Zrotation Yrotation Xrotation
                }
                JOINT LeftEye
                {
                  OFFSET 4.45173 8.166359 3.206392
                  CHANNELS 3 Zrotation Yrotation Xrotation
                }
                JOINT RightEye
                {
                  OFFSET 4.436895 8.135758 -3.222429
                  CHANNELS 3 Zrotation Yrotation Xrotation
                }
              }
            }
          }
          JOINT LeftShoulder
          {
            OFFSET 23.218927 5.195579 1.621656
            CHANNELS 3 Zrotation Yrotation Xrotation
            JOINT LeftArm
            {
              OFFSET 15.902118 2e-06 -2e-06
              CHANNELS 3 Zrotation Yrotation Xrotation
              JOINT LeftForeArm
              {
                OFFSET 28.739307 0.0 -1e-06
                CHANNELS 3 Zrotation Yrotation Xrotation
                JOINT LeftHand
                {
                  OFFSET 27.093981 -4e-06 0.0
                  CHANNELS 3 Zrotation Yrotation Xrotation
                  JOINT LeftHandThumb1
                  {
                    OFFSET 2.276781 3.380274 0.83384
                    CHANNELS 3 Zrotation Yrotation Xrotation
                    JOINT LeftHandThumb2
                    {
                      OFFSET 4.705309 -1e-06 -1e-06
                      CHANNELS 3 Zrotation Yrotation Xrotation
                      JOINT LeftHandThumb3
                      {
                        OFFSET 2.798515 0.0 3e-06
                        CHANNELS 3 Zrotation Yrotation Xrotation
                        JOINT LeftHandThumbEnd
                        {
                          OFFSET 3.180793 4e-06 -4e-06
                          CHANNELS 3 Zrotation Yrotation Xrotation
                        }
                      }
                    }
                  }
                  JOINT LeftHandIndex1
                  {
                    OFFSET 3.247786 2.352677 0.137192
                    CHANNELS 3 Zrotation Yrotation Xrotation
                    JOINT LeftHandIndex2
                    {
                      OFFSET 6.367095 1e-06 0.0
                      CHANNELS 3 Zrotation Yrotation Xrotation
                      JOINT LeftHandIndex3
                      {
                        OFFSET 3.662364 0.0 0.0
                        CHANNELS 3 Zrotation Yrotation Xrotation
                        JOINT LeftHandIndex4
                        {
                          OFFSET 2.329242 4e-06 -4e-06
                          CHANNELS 3 Zrotation Yrotation Xrotation
                          JOINT LeftHandIndexEnd
                          {
                            OFFSET 2.767823 1e-06 0.0
                            CHANNELS 3 Zrotation Yrotation Xrotation
                          }
                        }
                      }
                    }
                  }
                  JOINT LeftHandMiddle1
                  {
                    OFFSET 3.163612 0.945023 -0.406112
                    CHANNELS 3 Zrotation Yrotation Xrotation
                    JOINT LeftHandMiddle2
                    {
                      OFFSET 6.276789 3e-06 0.0
                      CHANNELS 3 Zrotation Yrotation Xrotation
                      JOINT LeftHandMiddle3
                      {
                        OFFSET 4.35652 -1e-06 4e-06
                        CHANNELS 3 Zrotation Yrotation Xrotation
                        JOINT LeftHandMiddle4
                        {
                          OFFSET 2.996877 0.0 8e-06
                          CHANNELS 3 Zrotation Yrotation Xrotation
                          JOINT LeftHandMiddleEnd
                          {
                            OFFSET 2.323256 3e-06 -4e-06
                            CHANNELS 3 Zrotation Yrotation Xrotation
                          }
                        }
                      }
                    }
                  }
                  JOINT LeftHandRing1
                  {
                    OFFSET 2.882606 -0.309162 0.107445
                    CHANNELS 3 Zrotation Yrotation Xrotation
                    JOINT LeftHandRing2
                    {
                      OFFSET 6.033198 0.0 4e-06
                      CHANNELS 3 Zrotation Yrotation Xrotation
                      JOINT LeftHandRing3
                      {
                        OFFSET 4.350578 3e-06 0.0
                        CHANNELS 3 Zrotation Yrotation Xrotation
                        JOINT LeftHandRing4
                        {
                          OFFSET 2.651321 2e-06 -7e-06
                          CHANNELS 3 Zrotation Yrotation Xrotation
                          JOINT LeftHandRingEnd
                          {
                            OFFSET 1.937663 1e-06 -4e-06
                            CHANNELS 3 Zrotation Yrotation Xrotation
                          }
                        }
                      }
                    }
                  }
                  JOINT LeftHandPinky1
                  {
                    OFFSET 2.865315 -1.525436 0.575687
                    CHANNELS 3 Zrotation Yrotation Xrotation
                    JOINT LeftHandPinky2
                    {
                      OFFSET 5.54936 1e-06 -8e-06
                      CHANNELS 3 Zrotation Yrotation Xrotation
                      JOINT LeftHandPinky3
                      {
                        OFFSET 3.070974 0.0 -4e-06
                        CHANNELS 3 Zrotation Yrotation Xrotation
                        JOINT LeftHandPinky4
                        {
                          OFFSET 1.549672 1e-06 0.0
                          CHANNELS 3 Zrotation Yrotation Xrotation
                          JOINT LeftHandPinkyEnd
                          {
                            OFFSET 1.952123 0.0 0.0
                            CHANNELS 3 Zrotation Yrotation Xrotation
                          }
                        }
                      }
                    }
                  }
                }
              }
            }
          }
          JOINT RightShoulder
          {
            OFFSET 23.161716 5.296122 -1.380114
            CHANNELS 3 Zrotation Yrotation Xrotation
            JOINT RightArm
            {
              OFFSET -16.027195 -2e-06 1.1e-05
              CHANNELS 3 Zrotation Yrotation Xrotation
              JOINT RightForeArm
              {
                OFFSET -28.736639 4e-06 2e-06
                CHANNELS 3 Zrotation Yrotation Xrotation
                JOINT RightHand
                {
                  OFFSET -27.133619 6e-06 0.0
                  CHANNELS 3 Zrotation Yrotation Xrotation
                  JOINT RightHandThumb1
                  {
                    OFFSET -2.274328 -3.351035 -0.83067
                    CHANNELS 3 Zrotation Yrotation Xrotation
                    JOINT RightHandThumb2
                    {
                      OFFSET -4.703594 -3e-06 2e-06
                      CHANNELS 3 Zrotation Yrotation Xrotation
                      JOINT RightHandThumb3
                      {
                        OFFSET -2.794935 -4e-06 -3e-06
                        CHANNELS 3 Zrotation Yrotation Xrotation
                        JOINT RightHandThumbEnd
                        {
                          OFFSET -3.183852 4e-06 1e-06
                          CHANNELS 3 Zrotation Yrotation Xrotation
                        }
                      }
                    }
                  }
                  JOINT RightHandIndex1
                  {
                    OFFSET -3.253496 -2.33755 -0.127667
                    CHANNELS 3 Zrotation Yrotation Xrotation
                    JOINT RightHandIndex2
                    {
                      OFFSET -6.344434 0.0 0.0
                      CHANNELS 3 Zrotation Yrotation Xrotation
                      JOINT RightHandIndex3
                      {
                        OFFSET -3.654871 0.0 -8e-06
                        CHANNELS 3 Zrotation Yrotation Xrotation
                        JOINT RightHandIndex4
                        {
                          OFFSET -2.327586 -1e-06 0.0
                          CHANNELS 3 Zrotation Yrotation Xrotation
                          JOINT RightHandIndexEnd
                          {
                            OFFSET -2.770001 3e-06 8e-06
                            CHANNELS 3 Zrotation Yrotation Xrotation
                          }
                        }
                      }
                    }
                  }
                  JOINT RightHandMiddle1
                  {
                    OFFSET -3.168223 -0.944764 0.411762
                    CHANNELS 3 Zrotation Yrotation Xrotation
                    JOINT RightHandMiddle2
                    {
                      OFFSET -6.266691 -1e-06 -4e-06
                      CHANNELS 3 Zrotation Yrotation Xrotation
                      JOINT RightHandMiddle3
                      {
                        OFFSET -4.348901 0.0 0.0
                        CHANNELS 3 Zrotation Yrotation Xrotation
                        JOINT RightHandMiddle4
                        {
                          OFFSET -3.00024 2e-06 -4e-06
                          CHANNELS 3 Zrotation Yrotation Xrotation
                          JOINT RightHandMiddleEnd
                          {
                            OFFSET -2.321477 -4e-06 -4e-06
                            CHANNELS 3 Zrotation Yrotation Xrotation
                          }
                        }
                      }
                    }
                  }
                  JOINT RightHandRing1
                  {
                    OFFSET -2.885654 0.293261 -0.119232
                    CHANNELS 3 Zrotation Yrotation Xrotation
                    JOINT RightHandRing2
                    {
                      OFFSET -6.032835 -1e-06 -4e-06
                      CHANNELS 3 Zrotation Yrotation Xrotation
                      JOINT RightHandRing3
                      {
                        OFFSET -4.33881 0.0 -4e-06
                        CHANNELS 3 Zrotation Yrotation Xrotation
                        JOINT RightHandRing4
                        {
                          OFFSET -2.654903 -4e-06 -4e-06
                          CHANNELS 3 Zrotation Yrotation Xrotation
                          JOINT RightHandRingEnd
                          {
                            OFFSET -1.935122 0.0 4e-06
                            CHANNELS 3 Zrotation Yrotation Xrotation
                          }
                        }
                      }
                    }
                  }
                  JOINT RightHandPinky1
                  {
                    OFFSET -2.866241 1.503904 -0.60527
                    CHANNELS 3 Zrotation Yrotation Xrotation
                    JOINT RightHandPinky2
                    {
                      OFFSET -5.553177 -2e-06 0.0
                      CHANNELS 3 Zrotation Yrotation Xrotation
                      JOINT RightHandPinky3
                      {
                        OFFSET -3.062664 -1e-06 -4e-06
                        CHANNELS 3 Zrotation Yrotation Xrotation
                        JOINT RightHandPinky4
                        {
                          OFFSET -1.546529 2e-06 4e-06
                          CHANNELS 3 Zrotation Yrotation Xrotation
                          JOINT RightHandPinkyEnd
                          {
                            OFFSET -1.952341 0.0 -4e-06
                            CHANNELS 3 Zrotation Yrotation Xrotation
                          }
                        }
                      }
                    }
                  }
                }
              }
            }
          }
        }
      }
    }
    JOINT LeftLeg
    {
      OFFSET -8.443107 2.567604 10.043214
      CHANNELS 3 Zrotation Yrotation Xrotation
      JOINT LeftShin
      {
        OFFSET 43.229198 1e-06 -1e-06
        CHANNELS 3 Zrotation Yrotation Xrotation
        JOINT LeftFoot
        {
          OFFSET 42.298611 1e-06 1e-06
          CHANNELS 3 Zrotation Yrotation Xrotation
          JOINT LeftToeBase
          {
            OFFSET 14.165858 1e-06 0.0
            CHANNELS 3 Zrotation Yrotation Xrotation
            JOINT LeftToeEnd
            {
              OFFSET 6.7141 -0.234461 0.0
              CHANNELS 3 Zrotation Yrotation Xrotation
            }
          }
        }
      }
    }
    JOINT RightLeg
    {
      OFFSET -8.303923 2.592729 -10.047278
      CHANNELS 3 Zrotation Yrotation Xrotation
      JOINT RightShin
      {
        OFFSET -43.369682 0.0 1e-06
        CHANNELS 3 Zrotation Yrotation Xrotation
        JOINT RightFoot
        {
          OFFSET -42.260784 4e-06 2e-06
          CHANNELS 3 Zrotation Yrotation Xrotation
          JOINT RightToeBase
          {
            OFFSET -14.222245 -2e-06 -1e-06
            CHANNELS 3 Zrotation Yrotation Xrotation
            JOINT RightToeEnd
            {
              OFFSET -6.660062 0.232574 -2e-06
              CHANNELS 3 Zrotation Yrotation Xrotation
            }
          }
        }
      }
    }
  }
}
MOTION
Frames: 5
Frame Time: 0.03333333333333333
0.0 0.0 0.0 0.0 -0.0 0.0 9.253222 97.986031 271.228027 89.294121 6.510924 102.329384 5.817949 1.436647 0.024793 -10.083462 -0.68038 -1.378626 22.666265 1.34205 -3.165943 47.127846 1.697557 2.111465 -2.695488 -0.44301 -1.461422 -36.481812 -2.099406 -1.036212 7e-06 0.0 0.0 0.034897 -0.005526 0.016835 0.052315 -0.051268 0.025011 0.079773 0.03831 0.021709 -71.278351 -77.30069 94.350784 26.350832 -41.656307 25.607368 50.134075 -1.638985 -1.072281 2.771052 2.801139 -15.852495 17.636621 -26.322737 52.411205 -19.466656 -14.395597 29.410393 -0.0 -8.774821 -1e-06 16.176531 -18.175964 6.056283 -0.609776 -1.795652 -3.88933 -4.807088 -11.046809 -2.937849 3e-06 -20.976015 2e-06 -5.019972 -25.033554 -4.031879 6e-06 2e-06 0.0 -10.634532 -5.68697 -3.565589 10.57327 -17.922947 -3.113899 2e-06 -13.821205 2e-06 -0.50178 -31.181498 -4.027013 -11.858677 -60.027267 7.536733 -13.982709 -7.150197 -2.875042 13.772726 -8.40149 -3.218243 0.34773 -34.211544 0.771658 -0.963028 -17.733372 2.621021 0.0 1e-06 -1e-06 -17.346413 -20.095215 -4.201782 21.757555 -1.638374 3.866428 1e-06 -6.338822 0.0 -1.697591 -22.59174 -6.194005 -0.0 -3e-06 -2e-06 78.426003 -78.044472 125.845215 26.70644 -38.860302 21.10478 48.631519 0.215829 0.533695 5.703831 0.341257 -14.431982 22.182116 -20.375895 49.933327 -16.701811 -16.743528 28.476528 -3e-06 -12.6906 -0.0 16.443729 -17.453672 2.630422 -0.105919 -1.513855 -4.275881 -5.03904 -5.612872 -2.953556 5e-06 -11.020524 -1e-06 -6.111294 -15.895334 -3.840476 -1e-06 0.0 3e-06 -10.283367 -5.680287 -4.341838 11.028294 -11.302406 -2.372634 -1.384268 -14.238581 -6.320127 -0.625438 -26.924194 -3.8276 -4.518185 -49.595528 -3.427026 -13.708523 -7.363475 -3.720938 18.14115 -14.052739 -3.242675 8e-06 -18.78727 -1e-06 -0.42971 -8.456043 2.555505 1e-06 2e-06 0.0 -15.923532 -20.094482 -5.473588 30.41921 -7.190824 1.735924 5e-06 -8.162929 1e-06 -1.861902 -22.861469 -6.167942 -1e-06 -3e-06 -1e-06 -177.903198 -14.186127 -12.985526 60.147205 -0.551739 0.685184 -69.778412 1.240718 -2.923262 -8.441543 1.607937 2.18226 -0.999997 1e-06 0.0 -7.249466 -0.213525 -19.910196 26.413162 0.202324 -0.22291 -81.617332 6.0862 1.685984 -4.615055 0.709757 1.687314 -1.000002 0.0 -0.0 
0.0 0.0 0.0 0.0 -0.0 0.0 8.983265 98.028297 273.413635 89.388161 6.647968 102.787392 5.844112 1.45004 0.147295 -10.061972 -0.740098 -1.254239 22.576231 1.086702 -3.041652 47.464478 1.679131 2.155214 -2.66433 -0.482262 -1.50478 -36.622555 -2.096728 -1.061046 7e-06 -0.0 0.0 0.032013 -0.01142 0.029367 0.066715 -0.05979 0.046697 0.104303 0.032786 0.025546 -72.259544 -77.067719 95.397743 26.107676 -41.31926 25.461456 49.804138 -1.865853 -1.127163 2.92409 2.732401 -16.295115 17.636621 -26.322721 52.411182 -19.466654 -14.395594 29.410381 -1e-06 -8.774819 -2e-06 16.208508 -18.167521 6.085555 -0.609776 -1.795653 -3.889327 -4.807086 -11.046806 -2.937852 4e-06 -20.976011 0.0 -5.019967 -25.033543 -4.031881 5e-06 0.0 -1e-06 -10.634531 -5.686969 -3.565588 10.573271 -17.922945 -3.113899 2e-06 -13.821205 1e-06 -0.501777 -31.181498 -4.027016 -11.904306 -60.097107 7.61773 -13.982709 -7.150196 -2.875041 13.772726 -8.401489 -3.218243 0.347733 -34.211544 0.771653 -0.963029 -17.733368 2.621021 1e-06 -2e-06 0.0 -17.346413 -20.095209 -4.201782 21.757551 -1.638375 3.866427 1e-06 -6.33882 2e-06 -1.697589 -22.591736 -6.194006 -1e-06 -3e-06 -2e-06 78.709335 -78.030731 125.661018 26.434847 -37.914875 20.547556 49.150566 0.256556 0.632559 5.56873 0.841749 -14.446373 22.182116 -20.375889 49.933315 -16.701817 -16.74353 28.47653 -4e-06 -12.690603 -2e-06 16.402924 -17.423895 2.654773 -0.105918 -1.513855 -4.275878 -5.039041 -5.612871 -2.953558 4e-06 -11.02052 -1e-06 -6.111298 -15.895328 -3.840472 -0.0 -1e-06 3e-06 -10.283369 -5.680286 -4.34184 11.028295 -11.302404 -2.372636 -1.384268 -14.238579 -6.320123 -0.625439 -26.924183 -3.827599 -4.423273 -49.642521 -3.470073 -13.708527 -7.363475 -3.720939 18.14115 -14.052738 -3.242676 9e-06 -18.78727 -3e-06 -0.429709 -8.456043 2.555502 1e-06 -0.0 -0.0 -15.923538 -20.094482 -5.473583 30.41921 -7.190827 1.735927 4e-06 -8.162925 0.0 -1.861902 -22.861467 -6.167942 -1e-06 -4e-06 -1e-06 179.557297 -14.980789 -13.668068 61.426132 -0.416031 0.639521 -72.329285 2.842163 -3.982171 -8.123732 1.560197 2.147169 -1.0 0.0 0.0 -5.506472 0.327613 -19.901512 26.117817 0.182247 -0.230753 -83.034119 5.482318 1.805097 -4.489107 0.725654 1.690554 -1.000001 -0.0 0.0 
0.0 0.0 0.0 0.0 -0.0 0.0 8.830531 98.061272 275.515045 89.501419 6.58006 103.22744 5.832382 1.475863 0.218599 -10.065895 -0.764497 -1.123898 22.37636 0.80546 -2.951385 47.589714 1.622154 2.227028 -2.647905 -0.527838 -1.593204 -36.587746 -2.044737 -1.178382 5e-06 -1e-06 1e-06 0.021832 -0.019049 0.044824 0.073142 -0.067137 0.067705 0.114628 0.023619 0.034474 -73.841003 -76.886864 96.992485 26.048174 -40.944309 25.094128 48.990395 -1.990005 -1.089463 2.932365 2.588145 -16.565311 17.636629 -26.322721 52.411182 -19.466663 -14.395598 29.410393 -0.0 -8.774821 -2e-06 16.256287 -18.168079 6.095379 -0.609777 -1.795654 -3.889328 -4.80709 -11.046811 -2.93785 4e-06 -20.976017 -3e-06 -5.01997 -25.03356 -4.031884 7e-06 -1e-06 -0.0 -10.634535 -5.686972 -3.565588 10.573274 -17.922947 -3.113901 3e-06 -13.821209 -1e-06 -0.501776 -31.181505 -4.027017 -11.893305 -60.165573 7.648481 -13.982716 -7.150199 -2.875042 13.772731 -8.401492 -3.218244 0.347735 -34.211555 0.77165 -0.963029 -17.733372 2.621019 1e-06 -1e-06 -1e-06 -17.346422 -20.095217 -4.201784 21.757559 -1.638374 3.866428 2e-06 -6.338823 1e-06 -1.697589 -22.591743 -6.194008 -0.0 -3e-06 0.0 79.547333 -78.1744 124.75943 26.050152 -37.098003 19.853329 49.432152 0.246497 0.788124 5.420118 1.230736 -14.631575 22.182117 -20.375891 49.933315 -16.701811 -16.74353 28.476528 -2e-06 -12.690601 -2e-06 16.355408 -17.392523 2.67329 -0.10592 -1.513856 -4.27588 -5.039041 -5.612873 -2.953555 2e-06 -11.020523 -0.0 -6.111301 -15.895332 -3.84047 -0.0 1e-06 1e-06 -10.283369 -5.680288 -4.341837 11.028292 -11.302404 -2.372636 -1.384272 -14.238579 -6.320121 -0.62544 -26.924191 -3.8276 -4.336877 -49.700394 -3.517258 -13.708525 -7.363476 -3.72094 18.14115 -14.052739 -3.242675 6e-06 -18.78727 -2e-06 -0.42971 -8.456045 2.555501 1e-06 -1e-06 -1e-06 -15.923536 -20.094482 -5.473584 30.41921 -7.190821 1.735926 1e-06 -8.162929 -0.0 -1.861904 -22.861473 -6.167943 0.0 -5e-06 -1e-06 177.061371 -15.227631 -14.55688 60.148861 -0.268284 0.576027 -74.659698 4.085579 -5.178552 -7.962461 1.510178 2.112971 -1.0 -0.0 2e-06 -3.999307 0.809032 -19.761505 25.732449 0.181689 -0.247005 -84.28038 4.812835 1.956527 -4.324106 0.735219 1.694455 -1.000002 0.0 0.0 
0.0 0.0 0.0 0.0 -0.0 0.0 8.774633 98.089066 277.463562 89.61367 6.334131 103.603607 5.819707 1.514934 0.244028 -10.06984 -0.765785 -0.982972 22.091488 0.508339 -2.880226 47.501808 1.569108 2.305762 -2.652891 -0.558589 -1.692715 -36.456009 -1.964381 -1.328296 4e-06 -1e-06 -0.0 0.011533 -0.023855 0.05179 0.074481 -0.067717 0.07694 0.111259 0.014195 0.037796 -75.857269 -76.735451 98.991821 26.072348 -40.498203 24.687513 47.997818 -1.968565 -0.981009 2.910028 2.391668 -16.79874 17.636635 -26.322729 52.411201 -19.466665 -14.3956 29.410395 -1e-06 -8.774823 -2e-06 16.278269 -18.138191 6.109907 -0.609777 -1.795653 -3.889328 -4.80709 -11.046811 -2.937849 5e-06 -20.976019 -0.0 -5.019972 -25.033556 -4.03188 6e-06 -0.0 0.0 -10.634537 -5.686972 -3.565589 10.573277 -17.922951 -3.113901 3e-06 -13.821211 0.0 -0.501776 -31.181505 -4.027017 -11.833359 -60.248314 7.681294 -13.982718 -7.150198 -2.875043 13.772733 -8.401494 -3.218243 0.347734 -34.211555 0.771654 -0.963028 -17.733372 2.62102 1e-06 0.0 -1e-06 -17.346424 -20.095219 -4.201781 21.757566 -1.638376 3.866428 2e-06 -6.338824 1e-06 -1.697589 -22.591747 -6.194008 -1e-06 -1e-06 -1e-06 80.563011 -78.486916 123.633392 25.573284 -36.270531 19.152641 49.544186 0.235997 0.925871 5.385271 1.472244 -14.866395 22.182119 -20.375896 49.933327 -16.701818 -16.74353 28.476536 -4e-06 -12.690603 -3e-06 16.291031 -17.338371 2.701155 -0.105919 -1.513855 -4.275884 -5.039041 -5.612872 -2.953558 4e-06 -11.020523 -2e-06 -6.111296 -15.89533 -3.840477 -1e-06 0.0 2e-06 -10.283371 -5.680288 -4.341839 11.028296 -11.302406 -2.372637 -1.384269 -14.238581 -6.320122 -0.625435 -26.924194 -3.827604 -4.311554 -49.742989 -3.505675 -13.708526 -7.363476 -3.720939 18.141153 -14.052739 -3.242676 8e-06 -18.78727 -3e-06 -0.429712 -8.456043 2.555503 2e-06 -1e-06 1e-06 -15.923536 -20.094484 -5.473587 30.419218 -7.190826 1.735925 1e-06 -8.162925 -1e-06 -1.861899 -22.861469 -6.167947 -1e-06 -3e-06 -1e-06 174.567444 -15.062232 -15.641891 56.854855 -0.11917 0.471034 -76.373726 4.958448 -6.390917 -7.841643 1.465991 2.091606 -1.0 -1e-06 0.0 -2.74627 1.142538 -19.510241 25.189306 0.186925 -0.274838 -85.392761 4.232386 2.023641 -4.179275 0.730994 1.696447 -1.000003 0.0 0.0 
0.0 0.0 0.0 0.0 -0.0 0.0 8.80636 98.143089 279.241455 89.719055 5.941025 103.907181 5.793538 1.551827 0.224395 -10.065866 -0.75579 -0.815508 21.788815 0.209504 -2.825988 47.266342 1.575106 2.356973 -2.678264 -0.609667 -1.76445 -36.27243 -1.849087 -1.491274 4e-06 -0.0 0.0 0.001898 -0.023944 0.044486 0.078837 -0.062954 0.072744 0.111493 0.009173 0.025199 -77.961189 -76.596863 101.078964 26.148066 -39.965565 24.294706 47.109917 -1.805762 -0.810519 2.886995 2.154258 -16.96483 17.636627 -26.322733 52.41119 -19.466656 -14.395597 29.410381 0.0 -8.774821 -1e-06 16.30757 -18.095516 6.116585 -0.609777 -1.795653 -3.889325 -4.807089 -11.046809 -2.93785 2e-06 -20.976013 3e-06 -5.019973 -25.033552 -4.03188 6e-06 -2e-06 -1e-06 -10.634533 -5.686971 -3.565589 10.573271 -17.922951 -3.113899 3e-06 -13.821209 2e-06 -0.501778 -31.181498 -4.027013 -11.810114 -60.349201 7.802717 -13.982713 -7.150197 -2.875043 13.772727 -8.401489 -3.21824 0.347729 -34.211544 0.771658 -0.963032 -17.733366 2.621021 1e-06 -1e-06 0.0 -17.346418 -20.095217 -4.20178 21.757557 -1.638373 3.866428 2e-06 -6.338825 3e-06 -1.697592 -22.591743 -6.194003 -0.0 -2e-06 -3e-06 81.701988 -78.908287 122.395065 25.099548 -35.449852 18.426039 49.474491 0.248395 1.034405 5.406098 1.581678 -15.113735 22.182123 -20.375902 49.933323 -16.70182 -16.743534 28.476534 -5e-06 -12.690606 -3e-06 16.238064 -17.292345 2.741254 -0.105921 -1.513857 -4.275882 -5.039042 -5.612872 -2.953558 5e-06 -11.020525 -0.0 -6.111298 -15.895334 -3.840471 0.0 0.0 -1e-06 -10.283371 -5.680286 -4.34184 11.028296 -11.302406 -2.372632 -1.384269 -14.238579 -6.32012 -0.625436 -26.924192 -3.827597 -4.317541 -49.770294 -3.461766 -13.708527 -7.363473 -3.720937 18.141159 -14.052745 -3.242678 8e-06 -18.78727 -1e-06 -0.42971 -8.456044 2.555506 2e-06 -1e-06 1e-06 -15.923539 -20.094482 -5.473581 30.419224 -7.190832 1.735927 5e-06 -8.162927 -4e-06 -1.861901 -22.861469 -6.167939 -0.0 -3e-06 0.0 172.180267 -14.552326 -16.804789 52.068932 0.001183 0.328268 -77.472397 5.341446 -7.571259 -7.721917 1.455349 2.103909 -0.999999 -1e-06 1e-06 -1.640745 1.374614 -19.264374 24.515924 0.189017 -0.285053 -86.117081 3.822477 2.043259 -4.053004 0.703991 1.694187 -1.000002 0.0 0.0 
